HIERARCHY
ROOT hip
{
  OFFSET 0 0 0
  CHANNELS 6 Xposition Yposition Zposition Zrotation Yrotation Xrotation
  JOINT abdomen
  {
    OFFSET 0 20.6881 -0.73152
    CHANNELS 3 Zrotation Xrotation Yrotation
    JOINT chest
    {
      OFFSET 0 11.7043 -0.48768
      CHANNELS 3 Zrotation Xrotation Yrotation
      JOINT neck
      {
        OFFSET 0 22.1894 -2.19456
        CHANNELS 3 Zrotation Xrotation Yrotation
        JOINT head
        {
          OFFSET -0.24384 7.07133 1.2192
          CHANNELS 3 Zrotation Xrotation Yrotation
          JOINT leftEye
          {
            OFFSET 4.14528 8.04674 8.04672
            CHANNELS 3 Zrotation Xrotation Yrotation
            End Site
            {
              OFFSET 1 0 0
            }
          }
          JOINT rightEye
          {
            OFFSET -3.6576 8.04674 8.04672
            CHANNELS 3 Zrotation Xrotation Yrotation
            End Site
            {
              OFFSET 1 0 0
            }
          }
        }
      }
      JOINT rCollar
      {
        OFFSET -2.68224 19.2634 -4.8768
        CHANNELS 3 Zrotation Xrotation Yrotation
        JOINT rShldr
        {
          OFFSET -8.77824 -1.95073 1.46304
          CHANNELS 3 Zrotation Xrotation Yrotation
          JOINT rForeArm
          {
            OFFSET -28.1742 -1.7115 0.48768
            CHANNELS 3 Zrotation Xrotation Yrotation
            JOINT rHand
            {
              OFFSET -22.5879 0.773209 7.07136
              CHANNELS 3 Zrotation Xrotation Yrotation
              JOINT rThumb1
              {
                OFFSET -1.2192 -0.487915 3.41376
                CHANNELS 3 Zrotation Xrotation Yrotation
                JOINT rThumb2
                {
                  OFFSET -3.37035 -0.52449 3.41376
                  CHANNELS 3 Zrotation Xrotation Yrotation
                  End Site
                  {
                    OFFSET -1.78271 -1.18214 1.43049
                  }
                }
              }
              JOINT rIndex1
              {
                OFFSET -7.75947 0.938293 5.60832
                CHANNELS 3 Zrotation Xrotation Yrotation
                JOINT rIndex2
                {
                  OFFSET -2.54057 -0.884171 1.56538
                  CHANNELS 3 Zrotation Xrotation Yrotation
                  End Site
                  {
                    OFFSET -1.62519 -0.234802 1.16502
                  }
                }
              }
              JOINT rMid1
              {
                OFFSET -8.24714 1.18213 3.41376
                CHANNELS 3 Zrotation Xrotation Yrotation
                JOINT rMid2
                {
                  OFFSET -3.10165 -0.590103 1.0647
                  CHANNELS 3 Zrotation Xrotation Yrotation
                  End Site
                  {
                    OFFSET -2.48547 -0.328903 0.83742
                  }
                }
              }
              JOINT rRing1
              {
                OFFSET -8.82822 0.546677 1.51678
                CHANNELS 3 Zrotation Xrotation Yrotation
                JOINT rRing2
                {
                  OFFSET -2.60934 -0.819778 -0.0198488
                  CHANNELS 3 Zrotation Xrotation Yrotation
                  End Site
                  {
                    OFFSET -2.33842 -0.294052 0.168128
                  }
                }
              }
              JOINT rPinky1
              {
                OFFSET -8.27202 -0.0477905 -0.4584
                CHANNELS 3 Zrotation Xrotation Yrotation
                JOINT rPinky2
                {
                  OFFSET -1.82734 -0.647385 -0.700984
                  CHANNELS 3 Zrotation Xrotation Yrotation
                  End Site
                  {
                    OFFSET -1.69225 -0.51767 -0.607171
                  }
                }
              }
            }
          }
        }
      }
      JOINT lCollar
      {
        OFFSET 2.68224 19.2634 -4.8768
        CHANNELS 3 Zrotation Xrotation Yrotation
        JOINT lShldr
        {
          OFFSET 8.77824 -1.95073 1.46304
          CHANNELS 3 Zrotation Xrotation Yrotation
          JOINT lForeArm
          {
            OFFSET 28.1742 -1.7115 0.48768
            CHANNELS 3 Zrotation Xrotation Yrotation
            JOINT lHand
            {
              OFFSET 22.5879 0.773209 7.07136
              CHANNELS 3 Zrotation Xrotation Yrotation
              JOINT lThumb1
              {
                OFFSET 1.2192 -0.487915 3.41376
                CHANNELS 3 Zrotation Xrotation Yrotation
                JOINT lThumb2
                {
                  OFFSET 3.37035 -0.52449 3.41376
                  CHANNELS 3 Zrotation Xrotation Yrotation
                  End Site
                  {
                    OFFSET 1.78271 -1.18214 1.43049
                  }
                }
              }
              JOINT lIndex1
              {
                OFFSET 7.75947 0.938293 5.60832
                CHANNELS 3 Zrotation Xrotation Yrotation
                JOINT lIndex2
                {
                  OFFSET 2.54057 -0.884171 1.56538
                  CHANNELS 3 Zrotation Xrotation Yrotation
                  End Site
                  {
                    OFFSET 1.62519 -0.234802 1.16502
                  }
                }
              }
              JOINT lMid1
              {
                OFFSET 8.24714 1.18213 3.41376
                CHANNELS 3 Zrotation Xrotation Yrotation
                JOINT lMid2
                {
                  OFFSET 3.10165 -0.590103 1.0647
                  CHANNELS 3 Zrotation Xrotation Yrotation
                  End Site
                  {
                    OFFSET 2.48547 -0.328903 0.83742
                  }
                }
              }
              JOINT lRing1
              {
                OFFSET 8.82822 0.546677 1.51678
                CHANNELS 3 Zrotation Xrotation Yrotation
                JOINT lRing2
                {
                  OFFSET 2.60934 -0.819778 -0.0198488
                  CHANNELS 3 Zrotation Xrotation Yrotation
                  End Site
                  {
                    OFFSET 2.33842 -0.294052 0.168128
                  }
                }
              }
              JOINT lPinky1
              {
                OFFSET 8.27202 -0.0477905 -0.4584
                CHANNELS 3 Zrotation Xrotation Yrotation
                JOINT lPinky2
                {
                  OFFSET 1.82734 -0.647385 -0.700984
                  CHANNELS 3 Zrotation Xrotation Yrotation
                  End Site
                  {
                    OFFSET 1.69225 -0.51767 -0.607171
                  }
                }
              }
            }
          }
        }
      }
    }
  }
  JOINT rButtock
  {
    OFFSET -8.77824 4.35084 1.2192
    CHANNELS 3 Zrotation Xrotation Yrotation
    JOINT rThigh
    {
      OFFSET 0 -1.70687 -2.19456
      CHANNELS 3 Zrotation Xrotation Yrotation
      JOINT rShin
      {
        OFFSET 0 -36.8199 0.73152
        CHANNELS 3 Zrotation Xrotation Yrotation
        JOINT rFoot
        {
          OFFSET 0.73152 -45.1104 -5.12064
          CHANNELS 3 Zrotation Xrotation Yrotation
          End Site
          {
            OFFSET -1.1221 -3.69964 12.103
          }
        }
      }
    }
  }
  JOINT lButtock
  {
    OFFSET 8.77824 4.35084 1.2192
    CHANNELS 3 Zrotation Xrotation Yrotation
    JOINT lThigh
    {
      OFFSET 0 -1.70687 -2.19456
      CHANNELS 3 Zrotation Xrotation Yrotation
      JOINT lShin
      {
        OFFSET 0 -36.8199 0.73152
        CHANNELS 3 Zrotation Xrotation Yrotation
        JOINT lFoot
        {
          OFFSET -0.73152 -45.1104 -5.12064
          CHANNELS 3 Zrotation Xrotation Yrotation
          End Site
          {
            OFFSET 1.1221 -3.69964 12.103
          }
        }
      }
    }
  }
}
MOTION
Frames:	9
Frame Time:	0.00833333
231.461 84.7658 15.6993 0.0 0.0 0.0 -0.385196 -0.00168814 -0.0109958 -0.106234 -0.00256713 -0.0184049 3.44124e-15 7.95139e-16 -4.34841e-17 1.03958e-14 9.54166e-15 -1.55301e-16 -0.0 0.0 0.0 -0.0 0.0 0.0 1.83749e-15 1.94126e-19 9.93923e-17 3.69601e-14 -2.23633e-16 3.97569e-16 6.23041e-13 -1.83478e-13 -3.18055e-14 7.08505e-12 1.93219e-13 -8.26944e-14 1.67184e-11 2.47091e-14 -2.38542e-13 2.88608e-11 4.77083e-14 -4.04726e-13 1.67218e-11 2.62396e-14 -2.51264e-13 7.73091 5.47488 0.417314 1.6717e-11 2.45499e-14 -2.38542e-13 2.90554 0.965183 0.102902 1.67218e-11 2.47487e-14 -2.34566e-13 10.2786 0.731801 0.0259123 1.67077e-11 2.82274e-14 -2.19458e-13 2.22167 -0.733487 -0.20892 1.64135e-15 3.88251e-19 -1.98785e-16 3.42243e-14 -3.35449e-16 -1.19271e-15 6.13996e-13 1.83677e-13 9.54166e-15 7.08799e-12 -1.87429e-13 -9.85972e-14 1.67138e-11 -2.06206e-15 -2.22639e-13 2.88786e-11 3.18055e-15 -3.91208e-13 1.67082e-11 -1.19271e-15 -2.09917e-13 -7.73091 5.47488 -0.417314 1.67145e-11 -2.28602e-15 -2.29e-13 -2.90554 0.965183 -0.102902 1.67118e-11 -2.18663e-15 -2.2741e-13 -10.2786 0.731801 -0.0259123 1.67206e-11 1.19271e-15 -2.44903e-13 -2.22167 -0.733487 0.20892 -2.03217e-16 0.0 -3.88251e-19 0.221642 -2.58356 -0.0280807 -0.00748952 -0.872629 -0.0651395 -0.513102 3.45577 0.129346 2.03217e-16 0.0 3.88251e-19 -0.807783 -4.07084 0.0653915 0.00325581 1.82139 0.0244325 0.51772 2.24911 -0.105181
228.09 83.3846 8.6894 -110.729 -84.8537 120.882 1.33014 -2.46606 -1.38736 0.131661 0.437567 -0.474493 -3.30405 0.837393 -2.64543 4.12145 -2.59889 -4.2213 -0.0 0.0 0.0 -0.0 0.0 0.0 2.36735e-15 -6.11447e-15 5.70846e-15 20.9588 3.28265 0.861506 -3.35181 -1.38348 5.37693 0.0303472 3.86633 0.53892 2.00818e-10 2.42937e-10 -3.14488e-10 3.4356e-10 4.20978e-10 -5.45936e-10 2.00821e-10 2.42938e-10 -3.14501e-10 7.73091 5.47488 0.417314 2.00817e-10 2.42937e-10 -3.1449e-10 2.90554 0.965183 0.102902 2.00821e-10 2.42937e-10 -3.14485e-10 10.2786 0.731801 0.0259123 2.00808e-10 2.4294e-10 -3.14471e-10 2.22167 -0.733487 -0.20892 2.19787e-15 -6.11576e-15 5.34894e-15 -22.6693 3.53687 -0.514983 3.17434 -1.28268 -5.11792 -0.117158 7.60563 -1.03521 -1.48668e-10 1.11644e-10 1.6138e-10 -2.53547e-10 1.92733e-10 2.82243e-10 -1.48679e-10 1.11643e-10 1.61394e-10 -7.73091 5.47488 -0.417314 -1.48668e-10 1.11643e-10 1.61374e-10 -2.90554 0.965183 -0.102902 -1.48671e-10 1.11643e-10 1.61375e-10 -10.2786 0.731801 -0.0259123 -1.48661e-10 1.11645e-10 1.61359e-10 -2.22167 -0.733487 0.20892 -2.03217e-16 0.0 -3.88251e-19 1.7722 -6.02626 1.09317 -0.00888418 3.21291 0.00711337 -0.638915 1.35974 -2.27656 2.03217e-16 0.0 3.88251e-19 0.686958 -6.39311 -1.54795 0.000672895 4.66458 -0.0291461 0.595598 0.0600003 1.90711
228.09 83.3856 8.69061 -109.779 -84.8618 119.932 3.01714 -5.06642 -2.8504 0.391249 0.900513 -0.956704 -6.71028 1.71764 -5.44223 8.05532 -5.29731 -8.71071 -0.0 0.0 0.0 -0.0 0.0 0.0 -5.59035e-16 1.70319e-14 1.37068e-14 43.0043 6.73518 1.7711 -6.61046 -2.80309 11.0652 -0.0173908 7.95989 1.1179 4.01477e-10 4.76122e-10 -5.9082e-10 6.87314e-10 8.25445e-10 -1.02625e-09 4.0148e-10 4.76122e-10 -5.90834e-10 7.73091 5.47488 0.417314 4.01477e-10 4.76121e-10 -5.90824e-10 2.90554 0.965183 0.102902 4.0148e-10 4.7612e-10 -5.90818e-10 10.2786 0.731801 0.0259123 4.01467e-10 4.76123e-10 -5.90804e-10 2.22167 -0.733487 -0.20892 -7.02032e-16 1.70289e-14 1.32782e-14 -46.5711 7.26352 -1.05597 6.27836 -2.60237 -10.5307 0.0683313 15.648 -2.19348 -2.83168e-10 2.13073e-10 3.20389e-10 -4.82763e-10 3.67757e-10 5.59767e-10 -2.83185e-10 2.13071e-10 3.20404e-10 -7.73091 5.47488 -0.417314 -2.83169e-10 2.13072e-10 3.20383e-10 -2.90554 0.965183 -0.102902 -2.83172e-10 2.13071e-10 3.20382e-10 -10.2786 0.731801 -0.0259123 -2.83161e-10 2.13073e-10 3.20368e-10 -2.22167 -0.733487 0.20892 -2.03217e-16 0.0 -3.88251e-19 3.55891 -9.66407 2.29899 -0.0216456 7.53597 0.0842527 -0.962536 -0.851245 -4.81268 2.03217e-16 0.0 3.88251e-19 2.12253 -8.83913 -3.26972 0.00372277 7.67123 -0.0863773 0.845397 -2.24873 4.04125
228.093 83.3849 8.69672 -109.181 -84.889 119.347 4.40344 -7.37761 -4.17083 0.628475 1.31749 -1.38699 -9.68079 2.49076 -7.94299 11.2173 -7.6269 -12.7657 -0.0 0.0 0.0 -0.0 0.0 0.0 3.42706e-15 -1.83438e-14 1.69266e-14 62.5766 9.83897 2.61882 -9.28628 -4.00446 16.1666 -0.130995 11.5949 1.64669 5.69018e-10 7.28763e-10 -9.42988e-10 9.72958e-10 1.26284e-09 -1.637e-09 5.6902e-10 7.28761e-10 -9.43001e-10 7.73091 5.47488 0.417314 5.69017e-10 7.28761e-10 -9.42994e-10 2.90554 0.965183 0.102902 5.6902e-10 7.2876e-10 -9.42986e-10 10.2786 0.731801 0.0259123 5.69008e-10 7.28763e-10 -9.42973e-10 2.22167 -0.733487 -0.20892 3.3109e-15 -1.83481e-14 1.64444e-14 -67.8144 10.6072 -1.56882 8.84348 -3.72542 -15.3832 0.531896 22.7858 -3.33915 -4.79432e-10 3.34935e-10 4.84587e-10 -8.18399e-10 5.78193e-10 8.4751e-10 -4.79453e-10 3.34933e-10 4.84602e-10 -7.73091 5.47488 -0.417314 -4.79433e-10 3.34934e-10 4.8458e-10 -2.90554 0.965183 -0.102902 -4.79436e-10 3.34933e-10 4.84579e-10 -10.2786 0.731801 -0.0259123 -4.79424e-10 3.34934e-10 4.84566e-10 -2.22167 -0.733487 0.20892 -2.03217e-16 0.0 -3.88251e-19 5.2867 -12.8929 3.40339 -0.0429794 11.3839 0.154612 -1.41756 -2.8075 -7.09454 2.03217e-16 0.0 3.88251e-19 3.27783 -11.0062 -4.83455 0.0116816 10.3509 -0.138239 1.21268 -4.29497 5.94831
228.097 83.3848 8.6704 -108.544 -84.8733 118.726 5.2908 -8.98218 -5.10554 0.795134 1.61989 -1.68718 -11.7252 3.01646 -9.69727 13.2557 -9.19549 -15.638 -0.0 0.0 0.0 -0.0 0.0 0.0 2.46943e-14 -2.00025e-13 8.19987e-15 76.1702 12.0789 3.28095 -11.0402 -4.7979 19.7671 -0.249756 14.0874 2.02115 6.53763e-10 1.03004e-09 -1.48474e-09 1.11333e-09 1.78254e-09 -2.57383e-09 6.53765e-10 1.03004e-09 -1.48476e-09 7.73091 5.47488 0.417314 6.53762e-10 1.03004e-09 -1.48475e-09 2.90554 0.965183 0.102902 6.53765e-10 1.03004e-09 -1.48474e-09 10.2786 0.731801 0.0259123 6.53753e-10 1.03004e-09 -1.48473e-09 2.22167 -0.733487 -0.20892 2.46059e-14 -2.00029e-13 7.70291e-15 -82.5419 12.9962 -1.99009 10.5344 -4.47252 -18.8076 1.043 27.6916 -4.22993 -8.30105e-10 5.07881e-10 6.61756e-10 -1.42009e-09 8.77156e-10 1.1608e-09 -8.30128e-10 5.07878e-10 6.61772e-10 -7.73091 5.47488 -0.417314 -8.30106e-10 5.07879e-10 6.61749e-10 -2.90554 0.965183 -0.102902 -8.30109e-10 5.07877e-10 6.61748e-10 -10.2786 0.731801 -0.0259123 -8.30097e-10 5.07879e-10 6.61737e-10 -2.22167 -0.733487 0.20892 -2.03217e-16 0.0 -3.88251e-19 6.57147 -15.1166 4.19378 -0.0634129 14.0442 0.204794 -1.83171 -4.15502 -8.72693 2.03217e-16 0.0 3.88251e-19 4.01456 -12.5035 -5.9569 0.0203989 12.2133 -0.174906 1.54667 -5.70961 7.26717
228.086 83.3817 8.62424 -107.479 -84.9179 117.741 5.59054 -9.60916 -5.48284 0.85532 1.77134 -1.80575 -12.5483 3.20696 -10.4037 14.0893 -9.82179 -16.79 -0.0 0.0 0.0 -0.0 0.0 0.0 7.90982e-14 -6.54631e-13 -2.23233e-14 81.49 13.1071 3.67063 -11.7308 -5.11479 21.2433 -0.302192 14.9849 2.15912 6.29706e-10 1.47336e-09 -2.48688e-09 1.06042e-09 2.54452e-09 -4.3039e-09 6.29709e-10 1.47335e-09 -2.48689e-09 7.73091 5.47488 0.417314 6.29705e-10 1.47336e-09 -2.48688e-09 2.90554 0.965183 0.102902 6.2971e-10 1.47336e-09 -2.48688e-09 10.2786 0.731801 0.0259123 6.29698e-10 1.47336e-09 -2.48687e-09 2.22167 -0.733487 -0.20892 7.90441e-14 -6.54633e-13 -2.27725e-14 -88.2011 14.0556 -2.27959 11.2031 -4.77269 -20.213 1.28012 29.4952 -4.58696 -1.54962e-09 8.19351e-10 9.20407e-10 -2.65647e-09 1.41596e-09 1.62239e-09 -1.54964e-09 8.19348e-10 9.20421e-10 -7.73091 5.47488 -0.417314 -1.54962e-09 8.19348e-10 9.20401e-10 -2.90554 0.965183 -0.102902 -1.54962e-09 8.19347e-10 9.20401e-10 -10.2786 0.731801 -0.0259123 -1.54961e-09 8.19348e-10 9.20391e-10 -2.22167 -0.733487 0.20892 -2.03217e-16 0.0 -3.88251e-19 7.09847 -15.941 4.50496 -0.0722819 15.0376 0.224053 -2.02545 -4.67185 -9.44085 2.03217e-16 0.0 3.88251e-19 4.29133 -13.079 -6.43284 0.0250502 12.9292 -0.18906 1.68827 -6.25721 7.74342
228.047 83.3877 8.61391 -105.252 -84.977 115.464 5.49759 -9.54124 -5.45585 0.837892 1.81462 -1.79449 -12.5152 3.1623 -10.3603 14.1444 -9.80773 -16.6953 -0.0 0.0 0.0 -0.0 0.0 0.0 1.56745e-13 -1.30094e-12 -6.81738e-14 80.9261 13.2723 3.85759 -11.7149 -5.1197 21.1964 -0.29038 14.7439 2.12236 5.27596e-10 2.01461e-09 -3.80857e-09 8.68968e-10 3.47349e-09 -6.58452e-09 5.27599e-10 2.0146e-09 -3.80858e-09 7.73091 5.47488 0.417314 5.27593e-10 2.01461e-09 -3.80857e-09 2.90554 0.965183 0.102902 5.27601e-10 2.01461e-09 -3.80857e-09 10.2786 0.731801 0.0259123 5.2759e-10 2.01461e-09 -3.80856e-09 2.22167 -0.733487 -0.20892 1.5673e-13 -1.30094e-12 -6.8531e-14 -87.4009 14.1657 -2.4689 11.1889 -4.77754 -20.1715 1.23288 29.0901 -4.50802 -2.52531e-09 1.22658e-09 1.23424e-09 -4.33373e-09 2.12056e-09 2.18455e-09 -2.52533e-09 1.22657e-09 1.23426e-09 -7.73091 5.47488 -0.417314 -2.52532e-09 1.22657e-09 1.23424e-09 -2.90554 0.965183 -0.102902 -2.52532e-09 1.22657e-09 1.23424e-09 -10.2786 0.731801 -0.0259123 -2.52531e-09 1.22657e-09 1.23423e-09 -2.22167 -0.733487 0.20892 -2.03217e-16 0.0 -3.88251e-19 7.05205 -15.7694 4.46265 -0.0704632 14.8405 0.22045 -2.02248 -4.60277 -9.49344 2.03217e-16 0.0 3.88251e-19 4.27029 -13.0012 -6.43847 0.0255589 12.8263 -0.186793 1.65944 -6.191 7.61262
228.018 83.3899 8.60431 -103.894 -85.0183 114.082 5.25232 -9.19509 -5.2622 0.79111 1.79979 -1.73011 -12.1338 3.02831 -10.0145 13.8677 -9.52135 -16.1025 -0.0 0.0 0.0 -0.0 0.0 0.0 2.29381e-13 -1.91497e-12 -1.12041e-13 78.0093 13.1052 3.94684 -11.4197 -5.00197 20.5428 -0.253886 14.0447 2.01573 3.82883e-10 2.47673e-09 -4.94616e-09 6.05935e-10 4.26601e-09 -8.54662e-09 3.82887e-10 2.47671e-09 -4.94616e-09 7.73091 5.47488 0.417314 3.82878e-10 2.47673e-09 -4.94616e-09 2.90554 0.965183 0.102902 3.8289e-10 2.47673e-09 -4.94616e-09 10.2786 0.731801 0.0259123 3.82879e-10 2.47673e-09 -4.94615e-09 2.22167 -0.733487 -0.20892 2.29397e-13 -1.91497e-12 -1.12302e-13 -84.0324 13.8889 -2.5979 10.9047 -4.66623 -19.5539 1.07643 27.802 -4.25777 -3.35922e-09 1.56489e-09 1.46884e-09 -5.76776e-09 2.70603e-09 2.60689e-09 -3.35923e-09 1.56489e-09 1.46885e-09 -7.73091 5.47488 -0.417314 -3.35922e-09 1.56489e-09 1.46884e-09 -2.90554 0.965183 -0.102902 -3.35923e-09 1.56488e-09 1.46884e-09 -10.2786 0.731801 -0.0259123 -3.35922e-09 1.56489e-09 1.46883e-09 -2.22167 -0.733487 0.20892 -2.03217e-16 0.0 -3.88251e-19 6.77879 -15.2056 4.27888 -0.0644504 14.174 0.20786 -1.93829 -4.30219 -9.27192 2.03217e-16 0.0 3.88251e-19 4.13347 -12.6653 -6.25061 0.0242474 12.3995 -0.178037 1.56436 -5.88161 7.24184
227.998 83.391 8.59582 -103.153 -85.0626 113.341 5.09338 -8.98715 -5.13987 0.763637 1.77693 -1.68931 -11.9115 2.95066 -9.81374 13.6983 -9.32779 -15.762 -0.0 0.0 0.0 -0.0 0.0 0.0 2.6875e-13 -2.27276e-12 -1.36615e-13 76.26 13.1357 4.04647 -11.2669 -4.9476 20.1997 -0.231245 13.5681 1.9437 2.3102e-10 2.68264e-09 -5.39598e-09 3.38271e-10 4.61863e-09 -9.32112e-09 2.31025e-10 2.68262e-09 -5.39598e-09 7.73091 5.47488 0.417314 2.31015e-10 2.68263e-09 -5.39598e-09 2.90554 0.965183 0.102902 2.31028e-10 2.68263e-09 -5.39598e-09 10.2786 0.731801 0.0259123 2.31017e-10 2.68263e-09 -5.39598e-09 2.22167 -0.733487 -0.20892 2.68781e-13 -2.27275e-12 -1.36814e-13 -81.9769 13.7871 -2.70915 10.7583 -4.61506 -19.2313 0.982773 26.9567 -4.09873 -3.65336e-09 1.66963e-09 1.48977e-09 -6.27449e-09 2.88746e-09 2.649e-09 -3.65336e-09 1.66963e-09 1.48978e-09 -7.73091 5.47488 -0.417314 -3.65336e-09 1.66962e-09 1.48977e-09 -2.90554 0.965183 -0.102902 -3.65336e-09 1.66962e-09 1.48977e-09 -10.2786 0.731801 -0.0259123 -3.65335e-09 1.66962e-09 1.48977e-09 -2.22167 -0.733487 0.20892 -2.03217e-16 0.0 -3.88251e-19 6.62535 -14.8533 4.16559 -0.0607013 13.7589 0.200143 -1.89276 -4.1235 -9.16392 2.03217e-16 0.0 3.88251e-19 4.06027 -12.4657 -6.14668 0.0234555 12.1435 -0.172732 1.50674 -5.69982 6.99819
